<svg width="369" height="45" viewBox="0 0 369 45" fill="none" xmlns="http://www.w3.org/2000/svg">
<path d="M71.5761 29.6995C71.1668 30.0498 70.6314 30.3363 69.9701 30.5592C69.3403 30.7503 68.6002 30.8458 67.7499 30.8458C66.6162 30.8458 65.6715 30.7025 64.9157 30.4159C64.1914 30.1294 63.719 29.6358 63.4986 28.9353C62.6168 26.1333 61.8925 23.8726 61.3257 22.1532C60.7588 20.402 60.3179 18.8736 60.003 17.5682H59.7668C59.6724 19.4468 59.5936 21.1662 59.5307 22.7264C59.4992 24.2547 59.4677 25.7513 59.4362 27.2159C59.4362 28.6806 59.4047 30.1612 59.3417 31.6577C59.3102 33.1542 59.2472 34.81 59.1528 36.6249C58.7434 36.7841 58.208 36.9115 57.5467 37.007C56.8854 37.1343 56.2241 37.198 55.5627 37.198C54.1771 37.198 53.0907 36.9751 52.3034 36.5294C51.5476 36.0836 51.1697 35.2717 51.1697 34.0935L52.5396 9.73533C52.7915 9.3214 53.3426 8.87563 54.1929 8.39801C55.0431 7.9204 56.2398 7.6816 57.7829 7.6816C59.4519 7.6816 60.7588 7.95224 61.7036 8.49354C62.6483 9.00299 63.3411 9.84677 63.782 11.0249C64.0654 11.7891 64.3646 12.6647 64.6795 13.6517C65.0259 14.6388 65.3566 15.6577 65.6715 16.7085C66.0179 17.7592 66.3486 18.81 66.6635 19.8607C66.9784 20.8796 67.2618 21.803 67.5137 22.6309H67.7499C68.5057 19.9562 69.2615 17.3771 70.0173 14.8935C70.7731 12.3781 71.4659 10.2766 72.0958 8.58906C72.5681 8.33433 73.1665 8.12737 73.8908 7.96816C74.6466 7.77712 75.4811 7.6816 76.3943 7.6816C77.9374 7.6816 79.1971 7.9204 80.1733 8.39801C81.1495 8.84379 81.7164 9.49652 81.8739 10.3562C81.9998 10.993 82.1258 11.9801 82.2518 13.3174C82.4092 14.6229 82.5667 16.1035 82.7241 17.7592C82.8816 19.4149 83.039 21.1662 83.1965 23.0129C83.354 24.8597 83.4957 26.6428 83.6216 28.3622C83.7791 30.0498 83.9051 31.61 83.9995 33.0428C84.094 34.4438 84.157 35.5264 84.1885 36.2906C83.6531 36.609 83.0863 36.8319 82.4879 36.9592C81.9211 37.1184 81.181 37.198 80.2678 37.198C79.0711 37.198 78.0634 36.9911 77.2446 36.5771C76.4258 36.1632 75.985 35.3513 75.922 34.1413C75.733 30.6707 75.6071 27.5503 75.5441 24.7801C75.5126 22.01 75.4496 19.6856 75.3551 17.807H75.1189C74.804 19.0488 74.3474 20.609 73.7491 22.4876C73.1507 24.3662 72.4264 26.7702 71.5761 29.6995Z" fill="black"/>
<path d="M89.4259 12.3144C89.4259 10.9453 89.8195 9.86269 90.6068 9.06667C91.3941 8.27065 92.4648 7.87264 93.819 7.87264H109.407C109.628 8.22289 109.817 8.68458 109.974 9.25772C110.163 9.83085 110.258 10.4358 110.258 11.0726C110.258 12.2826 109.99 13.1423 109.454 13.6517C108.951 14.1612 108.274 14.4159 107.423 14.4159H97.4562V18.8577H108.085C108.305 19.208 108.494 19.6697 108.651 20.2428C108.84 20.7841 108.935 21.3731 108.935 22.01C108.935 23.2199 108.683 24.0796 108.179 24.5891C107.675 25.0985 106.998 25.3532 106.148 25.3532H97.4562V30.3682H109.596C109.817 30.7184 110.006 31.1801 110.163 31.7532C110.352 32.3264 110.446 32.9314 110.446 33.5682C110.446 34.7781 110.179 35.6537 109.643 36.195C109.14 36.7045 108.462 36.9592 107.612 36.9592H93.819C92.4648 36.9592 91.3941 36.5612 90.6068 35.7652C89.8195 34.9692 89.4259 33.8866 89.4259 32.5174V12.3144Z" fill="black"/>
<path d="M113.982 14.5592C113.762 14.209 113.557 13.7314 113.368 13.1264C113.179 12.5214 113.085 11.8846 113.085 11.2159C113.085 9.97413 113.352 9.08259 113.888 8.5413C114.455 8 115.179 7.72936 116.061 7.72936H136.656C136.877 8.0796 137.081 8.55722 137.27 9.16219C137.459 9.76717 137.554 10.404 137.554 11.0726C137.554 12.3144 137.27 13.206 136.703 13.7473C136.168 14.2886 135.459 14.5592 134.578 14.5592H129.334V36.6249C128.988 36.7204 128.437 36.8159 127.681 36.9115C126.957 37.007 126.232 37.0547 125.508 37.0547C124.784 37.0547 124.138 36.9911 123.571 36.8637C123.036 36.7682 122.579 36.5771 122.201 36.2906C121.824 36.004 121.54 35.606 121.351 35.0965C121.162 34.5871 121.068 33.9184 121.068 33.0906V14.5592H113.982Z" fill="black"/>
<path d="M149.772 27.4547V36.6249C149.426 36.7204 148.875 36.8159 148.119 36.9115C147.395 37.007 146.67 37.0547 145.946 37.0547C145.222 37.0547 144.576 36.9911 144.009 36.8637C143.474 36.7682 143.017 36.5771 142.639 36.2906C142.293 36.004 142.025 35.606 141.836 35.0965C141.647 34.5871 141.553 33.9184 141.553 33.0906V10.595C141.553 9.92637 141.726 9.41692 142.072 9.06667C142.45 8.68458 142.954 8.38209 143.584 8.15921C144.655 7.77712 145.899 7.50647 147.316 7.34727C148.733 7.15622 150.245 7.0607 151.851 7.0607C156.196 7.0607 159.472 7.98409 161.676 9.83085C163.88 11.6776 164.983 14.1771 164.983 17.3294C164.983 19.3035 164.479 20.9911 163.471 22.392C162.463 23.793 161.267 24.8756 159.881 25.6398C161.015 27.2 162.133 28.6647 163.235 30.0338C164.337 31.403 165.203 32.6448 165.833 33.7592C165.518 34.8736 164.935 35.7333 164.085 36.3383C163.266 36.9115 162.337 37.198 161.298 37.198C160.605 37.198 160.007 37.1184 159.503 36.9592C158.999 36.8 158.558 36.5771 158.18 36.2906C157.802 36.004 157.456 35.6537 157.141 35.2398C156.826 34.8259 156.527 34.3801 156.244 33.9025L152.276 27.4547H149.772ZM152.748 21.1025C153.945 21.1025 154.89 20.8 155.582 20.195C156.275 19.5582 156.622 18.6348 156.622 17.4249C156.622 16.2149 156.228 15.3075 155.441 14.7025C154.685 14.0657 153.472 13.7473 151.803 13.7473C151.331 13.7473 150.953 13.7632 150.67 13.795C150.386 13.8269 150.071 13.8746 149.725 13.9383V21.1025H152.748Z" fill="black"/>
<path d="M176.801 8.73235C177.336 8.41394 178.139 8.11145 179.21 7.82488C180.312 7.53831 181.414 7.39503 182.516 7.39503C184.091 7.39503 185.477 7.63384 186.673 8.11145C187.901 8.55722 188.689 9.27364 189.035 10.2607C189.602 11.9164 190.216 13.8428 190.877 16.0398C191.539 18.2368 192.2 20.5134 192.861 22.8697C193.523 25.194 194.168 27.5025 194.798 29.795C195.428 32.0557 195.979 34.0617 196.451 35.813C196.073 36.2587 195.507 36.609 194.751 36.8637C193.995 37.1503 193.098 37.2935 192.058 37.2935C191.302 37.2935 190.657 37.2299 190.122 37.1025C189.618 36.9751 189.193 36.7841 188.846 36.5294C188.531 36.2746 188.264 35.9403 188.043 35.5264C187.854 35.1125 187.681 34.6348 187.524 34.0935L186.673 30.798H178.123C177.871 31.7532 177.619 32.7403 177.368 33.7592C177.116 34.7781 176.864 35.7652 176.612 36.7204C176.171 36.8796 175.698 37.007 175.195 37.1025C174.722 37.2299 174.14 37.2935 173.447 37.2935C171.841 37.2935 170.644 37.0229 169.857 36.4816C169.101 35.9085 168.723 35.1284 168.723 34.1413C168.723 33.6955 168.786 33.2498 168.912 32.804C169.038 32.3582 169.18 31.8328 169.337 31.2279C169.558 30.3682 169.857 29.3015 170.235 28.0279C170.644 26.7542 171.085 25.3851 171.557 23.9204C172.03 22.4239 172.534 20.8955 173.069 19.3353C173.604 17.7751 174.108 16.3105 174.581 14.9413C175.053 13.5403 175.478 12.2985 175.856 11.2159C176.265 10.1333 176.58 9.30548 176.801 8.73235ZM182.469 14.8935C182.028 16.2309 181.524 17.7274 180.958 19.3831C180.422 21.007 179.934 22.6627 179.493 24.3503H185.351C184.91 22.6309 184.453 20.9592 183.981 19.3353C183.54 17.6796 183.13 16.199 182.753 14.8935H182.469Z" fill="black"/>
<path d="M208.632 25.3055C207.246 24.8279 205.987 24.3503 204.853 23.8726C203.719 23.3632 202.743 22.7582 201.924 22.0577C201.105 21.3572 200.46 20.5294 199.987 19.5741C199.547 18.5871 199.326 17.393 199.326 15.992C199.326 13.2856 200.35 11.1204 202.397 9.49652C204.475 7.87264 207.372 7.0607 211.088 7.0607C212.442 7.0607 213.702 7.15622 214.867 7.34727C216.032 7.53831 217.024 7.8408 217.843 8.25473C218.693 8.63682 219.355 9.14627 219.827 9.78309C220.299 10.3881 220.536 11.1045 220.536 11.9323C220.536 12.7602 220.347 13.4766 219.969 14.0816C219.591 14.6547 219.134 15.1483 218.599 15.5622C217.906 15.1164 216.977 14.7343 215.812 14.4159C214.647 14.0657 213.371 13.8906 211.986 13.8906C210.569 13.8906 209.529 14.0975 208.868 14.5115C208.207 14.8935 207.876 15.3871 207.876 15.992C207.876 16.4697 208.081 16.8677 208.49 17.1861C208.9 17.4726 209.514 17.7433 210.332 17.998L212.836 18.81C215.796 19.7652 218.064 20.9911 219.638 22.4876C221.244 23.9522 222.047 25.9582 222.047 28.5055C222.047 31.212 220.992 33.409 218.882 35.0965C216.772 36.7523 213.671 37.5801 209.577 37.5801C208.128 37.5801 206.774 37.4528 205.514 37.198C204.286 36.9751 203.2 36.6408 202.255 36.195C201.342 35.7174 200.617 35.1443 200.082 34.4756C199.578 33.7751 199.326 32.9791 199.326 32.0876C199.326 31.1642 199.594 30.3841 200.129 29.7473C200.665 29.0786 201.247 28.5692 201.877 28.2189C202.759 28.9194 203.829 29.5244 205.089 30.0338C206.38 30.5433 207.782 30.798 209.293 30.798C210.836 30.798 211.923 30.5592 212.553 30.0816C213.182 29.604 213.497 29.0468 213.497 28.41C213.497 27.7731 213.245 27.2955 212.742 26.9771C212.238 26.6269 211.529 26.2925 210.616 25.9741L208.632 25.3055Z" fill="black"/>
<path d="M226.524 12.3144C226.524 10.9453 226.918 9.86269 227.705 9.06667C228.493 8.27065 229.563 7.87264 230.918 7.87264H246.506C246.726 8.22289 246.915 8.68458 247.073 9.25772C247.262 9.83085 247.356 10.4358 247.356 11.0726C247.356 12.2826 247.088 13.1423 246.553 13.6517C246.049 14.1612 245.372 14.4159 244.522 14.4159H234.555V18.8577H245.183C245.404 19.208 245.593 19.6697 245.75 20.2428C245.939 20.7841 246.033 21.3731 246.033 22.01C246.033 23.2199 245.781 24.0796 245.278 24.5891C244.774 25.0985 244.097 25.3532 243.246 25.3532H234.555V30.3682H246.695C246.915 30.7184 247.104 31.1801 247.262 31.7532C247.451 32.3264 247.545 32.9314 247.545 33.5682C247.545 34.7781 247.277 35.6537 246.742 36.195C246.238 36.7045 245.561 36.9592 244.711 36.9592H230.918C229.563 36.9592 228.493 36.5612 227.705 35.7652C226.918 34.9692 226.524 33.8866 226.524 32.5174V12.3144Z" fill="black"/>
<path d="M278.337 35.813C277.896 36.2587 277.25 36.5931 276.4 36.8159C275.581 37.0707 274.589 37.198 273.424 37.198C272.259 37.198 271.157 37.0229 270.117 36.6727C269.078 36.3224 268.228 35.4786 267.567 34.1413L262.89 24.4935C262.418 23.5065 261.993 22.5831 261.615 21.7234C261.237 20.8319 260.827 19.8129 260.387 18.6667L260.103 18.7144C260.229 20.4338 260.292 22.1851 260.292 23.9682C260.324 25.7513 260.339 27.5025 260.339 29.2219V36.6249C259.993 36.7204 259.458 36.8159 258.733 36.9115C258.04 37.007 257.348 37.0547 256.655 37.0547C255.962 37.0547 255.348 37.007 254.813 36.9115C254.277 36.8159 253.836 36.6249 253.49 36.3383C253.143 36.0518 252.876 35.6697 252.687 35.1921C252.498 34.6826 252.403 34.0299 252.403 33.2338V9.35324C252.844 8.71642 253.521 8.23881 254.435 7.9204C255.348 7.60199 256.324 7.44279 257.363 7.44279C258.529 7.44279 259.631 7.63384 260.67 8.01592C261.741 8.36617 262.591 9.19404 263.221 10.4995L267.944 20.1473C268.417 21.1343 268.842 22.0736 269.22 22.9652C269.598 23.8249 270.007 24.8279 270.448 25.9741L270.684 25.9264C270.558 24.207 270.48 22.4876 270.448 20.7682C270.417 19.0488 270.401 17.3294 270.401 15.61V7.87264C270.747 7.77712 271.267 7.6816 271.96 7.58607C272.684 7.49055 273.392 7.44279 274.085 7.44279C275.471 7.44279 276.526 7.69752 277.25 8.20697C277.974 8.68458 278.337 9.70349 278.337 11.2637V35.813Z" fill="black"/>
<path d="M292.589 25.3055C291.203 24.8279 289.943 24.3503 288.81 23.8726C287.676 23.3632 286.7 22.7582 285.881 22.0577C285.062 21.3572 284.417 20.5294 283.944 19.5741C283.503 18.5871 283.283 17.393 283.283 15.992C283.283 13.2856 284.306 11.1204 286.353 9.49652C288.432 7.87264 291.329 7.0607 295.045 7.0607C296.399 7.0607 297.659 7.15622 298.824 7.34727C299.989 7.53831 300.981 7.8408 301.8 8.25473C302.65 8.63682 303.311 9.14627 303.784 9.78309C304.256 10.3881 304.492 11.1045 304.492 11.9323C304.492 12.7602 304.303 13.4766 303.926 14.0816C303.548 14.6547 303.091 15.1483 302.556 15.5622C301.863 15.1164 300.934 14.7343 299.769 14.4159C298.603 14.0657 297.328 13.8906 295.942 13.8906C294.525 13.8906 293.486 14.0975 292.825 14.5115C292.163 14.8935 291.833 15.3871 291.833 15.992C291.833 16.4697 292.038 16.8677 292.447 17.1861C292.856 17.4726 293.47 17.7433 294.289 17.998L296.793 18.81C299.753 19.7652 302.02 20.9911 303.595 22.4876C305.201 23.9522 306.004 25.9582 306.004 28.5055C306.004 31.212 304.949 33.409 302.839 35.0965C300.729 36.7523 297.627 37.5801 293.533 37.5801C292.085 37.5801 290.731 37.4528 289.471 37.198C288.243 36.9751 287.156 36.6408 286.212 36.195C285.298 35.7174 284.574 35.1443 284.039 34.4756C283.535 33.7751 283.283 32.9791 283.283 32.0876C283.283 31.1642 283.551 30.3841 284.086 29.7473C284.621 29.0786 285.204 28.5692 285.834 28.2189C286.715 28.9194 287.786 29.5244 289.046 30.0338C290.337 30.5433 291.738 30.798 293.25 30.798C294.793 30.798 295.879 30.5592 296.509 30.0816C297.139 29.604 297.454 29.0468 297.454 28.41C297.454 27.7731 297.202 27.2955 296.698 26.9771C296.194 26.6269 295.486 26.2925 294.573 25.9741L292.589 25.3055Z" fill="black"/>
<path d="M309.249 22.2965C309.249 19.8129 309.626 17.6159 310.382 15.7055C311.17 13.795 312.225 12.203 313.547 10.9294C314.901 9.62389 316.476 8.63682 318.271 7.96816C320.097 7.29951 322.066 6.96518 324.176 6.96518C326.285 6.96518 328.238 7.29951 330.033 7.96816C331.859 8.63682 333.45 9.62389 334.804 10.9294C336.158 12.203 337.213 13.795 337.969 15.7055C338.756 17.6159 339.15 19.8129 339.15 22.2965C339.15 24.7801 338.772 26.993 338.016 28.9353C337.26 30.8458 336.205 32.4537 334.851 33.7592C333.529 35.0329 331.954 36.004 330.127 36.6727C328.301 37.3413 326.317 37.6756 324.176 37.6756C322.034 37.6756 320.05 37.3413 318.224 36.6727C316.397 35.9722 314.823 34.9692 313.5 33.6637C312.177 32.3582 311.138 30.7503 310.382 28.8398C309.626 26.9294 309.249 24.7483 309.249 22.2965ZM317.751 22.2965C317.751 25.194 318.334 27.3592 319.499 28.7921C320.664 30.2249 322.223 30.9413 324.176 30.9413C326.16 30.9413 327.734 30.2249 328.899 28.7921C330.064 27.3592 330.647 25.194 330.647 22.2965C330.647 19.4309 330.064 17.2816 328.899 15.8488C327.766 14.4159 326.207 13.6995 324.223 13.6995C322.27 13.6995 320.696 14.4159 319.499 15.8488C318.334 17.2498 317.751 19.399 317.751 22.2965Z" fill="black"/>
<path d="M352.099 27.4547V36.6249C351.752 36.7204 351.201 36.8159 350.445 36.9115C349.721 37.007 348.997 37.0547 348.272 37.0547C347.548 37.0547 346.903 36.9911 346.336 36.8637C345.8 36.7682 345.344 36.5771 344.966 36.2906C344.619 36.004 344.352 35.606 344.163 35.0965C343.974 34.5871 343.879 33.9184 343.879 33.0906V10.595C343.879 9.92637 344.053 9.41692 344.399 9.06667C344.777 8.68458 345.281 8.38209 345.911 8.15921C346.981 7.77712 348.225 7.50647 349.642 7.34727C351.059 7.15622 352.571 7.0607 354.177 7.0607C358.523 7.0607 361.798 7.98409 364.002 9.83085C366.207 11.6776 367.309 14.1771 367.309 17.3294C367.309 19.3035 366.805 20.9911 365.797 22.392C364.79 23.793 363.593 24.8756 362.207 25.6398C363.341 27.2 364.459 28.6647 365.561 30.0338C366.663 31.403 367.529 32.6448 368.159 33.7592C367.844 34.8736 367.262 35.7333 366.411 36.3383C365.593 36.9115 364.664 37.198 363.624 37.198C362.932 37.198 362.333 37.1184 361.83 36.9592C361.326 36.8 360.885 36.5771 360.507 36.2906C360.129 36.004 359.783 35.6537 359.468 35.2398C359.153 34.8259 358.854 34.3801 358.57 33.9025L354.602 27.4547H352.099ZM355.075 21.1025C356.271 21.1025 357.216 20.8 357.909 20.195C358.602 19.5582 358.948 18.6348 358.948 17.4249C358.948 16.2149 358.554 15.3075 357.767 14.7025C357.011 14.0657 355.799 13.7473 354.13 13.7473C353.657 13.7473 353.28 13.7632 352.996 13.795C352.713 13.8269 352.398 13.8746 352.051 13.9383V21.1025H355.075Z" fill="black"/>
<path fill-rule="evenodd" clip-rule="evenodd" d="M22.1424 32.3383C27.5775 32.3383 31.9835 27.8834 31.9835 22.3881C31.9835 16.8927 27.5775 12.4378 22.1424 12.4378C16.7074 12.4378 12.3014 16.8927 12.3014 22.3881C12.3014 27.8834 16.7074 32.3383 22.1424 32.3383ZM22.1424 44.7761C34.3714 44.7761 44.2849 34.7527 44.2849 22.3881C44.2849 10.0235 34.3714 0 22.1424 0C9.9135 0 0 10.0235 0 22.3881C0 34.7527 9.9135 44.7761 22.1424 44.7761Z" fill="#84C0FC"/>
</svg>
