<svg width="284" height="44" viewBox="0 0 284 44" fill="none" xmlns="http://www.w3.org/2000/svg">
<path d="M51.73 31.7361C51.5317 31.7361 51.3605 31.6658 51.2163 31.525C51.0721 31.3842 51 31.2172 51 31.0236V13.9764C51 13.7828 51.0721 13.6158 51.2163 13.475C51.3605 13.3342 51.5317 13.2639 51.73 13.2639H65.6004C65.7987 13.2639 65.9698 13.3342 66.1141 13.475C66.2583 13.6158 66.3304 13.7828 66.3304 13.9764V17.6972C66.3304 17.8908 66.2583 18.0578 66.1141 18.1986C65.9698 18.3394 65.7987 18.4097 65.6004 18.4097H57.4891V20.0722H65.0055C65.2038 20.0722 65.375 20.1425 65.5192 20.2833C65.6635 20.4241 65.7355 20.5912 65.7355 20.7847V24.2153C65.7355 24.4088 65.6635 24.5759 65.5192 24.7167C65.375 24.8575 65.2038 24.9278 65.0055 24.9278H57.4891V26.5903H65.8167C66.015 26.5903 66.1861 26.6606 66.3304 26.8014C66.4746 26.9422 66.5467 27.1092 66.5467 27.3028V31.0236C66.5467 31.2172 66.4746 31.3842 66.3304 31.525C66.1861 31.6658 66.015 31.7361 65.8167 31.7361H51.73ZM78.8215 31.7361C78.6233 31.7361 78.452 31.6658 78.3078 31.525C78.1637 31.3842 78.0915 31.2172 78.0915 31.0236V18.9375H73.6032C73.4051 18.9375 73.2338 18.8672 73.0895 18.7264C72.9454 18.5856 72.8732 18.4186 72.8732 18.225V13.9764C72.8732 13.7828 72.9454 13.6158 73.0895 13.475C73.2338 13.3342 73.4051 13.2639 73.6032 13.2639H89.4473C89.6457 13.2639 89.8169 13.3342 89.961 13.475C90.1053 13.6158 90.1774 13.7828 90.1774 13.9764V18.225C90.1774 18.4186 90.1053 18.5856 89.961 18.7264C89.8169 18.8672 89.6457 18.9375 89.4473 18.9375H84.9591V31.0236C84.9591 31.2172 84.887 31.3842 84.7428 31.525C84.5987 31.6658 84.4274 31.7361 84.2291 31.7361H78.8215ZM97.7163 31.7361C97.518 31.7361 97.3468 31.6658 97.2025 31.525C97.0583 31.3842 96.9863 31.2172 96.9863 31.0236V13.9764C96.9863 13.7828 97.0583 13.6158 97.2025 13.475C97.3468 13.3342 97.518 13.2639 97.7163 13.2639H105.719C108.315 13.2639 110.343 13.8356 111.803 14.9792C113.263 16.105 113.993 17.6708 113.993 19.6764C113.993 20.82 113.732 21.8314 113.209 22.7111C112.686 23.5731 111.974 24.2856 111.073 24.8486L114.399 30.8653C114.453 30.9708 114.48 31.0675 114.48 31.1556C114.48 31.3139 114.417 31.4547 114.29 31.5778C114.182 31.6833 114.047 31.7361 113.885 31.7361H108.342C108.018 31.7361 107.756 31.6658 107.558 31.525C107.378 31.3667 107.252 31.1995 107.179 31.0236L104.854 25.9833H103.746V31.0236C103.746 31.2172 103.674 31.3842 103.529 31.525C103.385 31.6658 103.214 31.7361 103.016 31.7361H97.7163ZM105.719 20.9694C106.116 20.9694 106.422 20.8463 106.639 20.6C106.855 20.3361 106.963 20.0106 106.963 19.6236C106.963 19.2366 106.855 18.9023 106.639 18.6208C106.44 18.3217 106.134 18.1722 105.719 18.1722H103.746V20.9694H105.719ZM120.473 31.7361C120.311 31.7361 120.167 31.6833 120.041 31.5778C119.933 31.4547 119.879 31.3139 119.879 31.1556C119.879 31.0852 119.888 31.0236 119.906 30.9708L125.935 14.1347C126.007 13.9061 126.142 13.7037 126.341 13.5278C126.539 13.3519 126.809 13.2639 127.152 13.2639H133.019C133.361 13.2639 133.631 13.3519 133.83 13.5278C134.029 13.7037 134.164 13.9061 134.236 14.1347L140.265 30.9708C140.283 31.0236 140.292 31.0852 140.292 31.1556C140.292 31.3139 140.228 31.4547 140.103 31.5778C139.995 31.6833 139.859 31.7361 139.697 31.7361H134.695C134.154 31.7361 133.803 31.5162 133.641 31.0764L132.992 29.3347H127.179L126.53 31.0764C126.368 31.5162 126.016 31.7361 125.475 31.7361H120.473ZM131.613 24.1889L130.072 19.2806L128.558 24.1889H131.613ZM154.247 32C152.336 32 150.714 31.7449 149.381 31.2347C148.064 30.7245 147.073 30.0472 146.407 29.2028C145.739 28.3408 145.387 27.3995 145.352 26.3792C145.352 26.2208 145.406 26.0889 145.514 25.9833C145.64 25.8602 145.785 25.7986 145.947 25.7986H151.084C151.336 25.7986 151.534 25.8338 151.679 25.9042C151.841 25.9569 152.03 26.0713 152.247 26.2472C152.769 26.6519 153.436 26.8542 154.247 26.8542C154.86 26.8542 155.347 26.7925 155.708 26.6694C156.086 26.5287 156.275 26.3439 156.275 26.1153C156.275 25.7986 156.032 25.5611 155.545 25.4028C155.059 25.2269 154.139 25.0509 152.787 24.875C148.137 24.2769 145.812 22.3417 145.812 19.0694C145.812 17.8908 146.154 16.8439 146.839 15.9292C147.542 14.9967 148.515 14.2755 149.759 13.7653C151.003 13.2551 152.436 13 154.058 13C155.752 13 157.239 13.2814 158.519 13.8444C159.798 14.4075 160.781 15.12 161.467 15.9819C162.151 16.8264 162.512 17.6533 162.548 18.4625C162.548 18.6208 162.485 18.7616 162.359 18.8847C162.251 18.9903 162.124 19.0431 161.98 19.0431H156.573C156.32 19.0431 156.121 19.0167 155.978 18.9639C155.833 18.8936 155.671 18.7792 155.491 18.6208C155.113 18.3042 154.634 18.1458 154.058 18.1458C153.193 18.1458 152.76 18.3922 152.76 18.8847C152.76 19.1486 152.967 19.3686 153.382 19.5444C153.815 19.7203 154.607 19.8787 155.762 20.0194C157.564 20.2481 159.006 20.5912 160.088 21.0486C161.187 21.5061 161.98 22.1217 162.467 22.8958C162.971 23.6523 163.224 24.6111 163.224 25.7722C163.224 27.0213 162.836 28.1208 162.061 29.0708C161.285 30.0033 160.213 30.7245 158.844 31.2347C157.492 31.7449 155.959 32 154.247 32ZM170.801 31.7361C170.603 31.7361 170.432 31.6658 170.288 31.525C170.143 31.3842 170.071 31.2172 170.071 31.0236V13.9764C170.071 13.7828 170.143 13.6158 170.288 13.475C170.432 13.3342 170.603 13.2639 170.801 13.2639H184.672C184.87 13.2639 185.041 13.3342 185.185 13.475C185.33 13.6158 185.402 13.7828 185.402 13.9764V17.6972C185.402 17.8908 185.33 18.0578 185.185 18.1986C185.041 18.3394 184.87 18.4097 184.672 18.4097H176.56V20.0722H184.077C184.276 20.0722 184.446 20.1425 184.591 20.2833C184.735 20.4241 184.807 20.5912 184.807 20.7847V24.2153C184.807 24.4088 184.735 24.5759 184.591 24.7167C184.446 24.8575 184.276 24.9278 184.077 24.9278H176.56V26.5903H184.888C185.087 26.5903 185.257 26.6606 185.402 26.8014C185.546 26.9422 185.618 27.1092 185.618 27.3028V31.0236C185.618 31.2172 185.546 31.3842 185.402 31.525C185.257 31.6658 185.087 31.7361 184.888 31.7361H170.801ZM193.702 31.7361C193.504 31.7361 193.333 31.6658 193.189 31.525C193.044 31.3842 192.972 31.2172 192.972 31.0236V13.9764C192.972 13.7828 193.044 13.6158 193.189 13.475C193.333 13.3342 193.504 13.2639 193.702 13.2639H197.974C198.478 13.2639 198.849 13.4662 199.083 13.8708L203.652 21.1806V13.9764C203.652 13.7828 203.724 13.6158 203.868 13.475C204.013 13.3342 204.183 13.2639 204.382 13.2639H209.276C209.475 13.2639 209.645 13.3342 209.79 13.475C209.934 13.6158 210.006 13.7828 210.006 13.9764V31.0236C210.006 31.2172 209.934 31.3842 209.79 31.525C209.645 31.6658 209.475 31.7361 209.276 31.7361H205.004C204.697 31.7361 204.463 31.6745 204.301 31.5514C204.139 31.4283 204.004 31.2875 203.895 31.1292L199.326 24.4V31.0236C199.326 31.2172 199.254 31.3842 199.11 31.525C198.965 31.6658 198.795 31.7361 198.596 31.7361H193.702ZM225.749 32C223.837 32 222.215 31.7449 220.882 31.2347C219.565 30.7245 218.574 30.0472 217.908 29.2028C217.24 28.3408 216.888 27.3995 216.853 26.3792C216.853 26.2208 216.907 26.0889 217.015 25.9833C217.141 25.8602 217.286 25.7986 217.448 25.7986H222.585C222.837 25.7986 223.035 25.8338 223.18 25.9042C223.342 25.9569 223.532 26.0713 223.748 26.2472C224.27 26.6519 224.938 26.8542 225.749 26.8542C226.361 26.8542 226.848 26.7925 227.209 26.6694C227.587 26.5287 227.776 26.3439 227.776 26.1153C227.776 25.7986 227.533 25.5611 227.046 25.4028C226.56 25.2269 225.641 25.0509 224.289 24.875C219.638 24.2769 217.313 22.3417 217.313 19.0694C217.313 17.8908 217.655 16.8439 218.34 15.9292C219.043 14.9967 220.017 14.2755 221.26 13.7653C222.504 13.2551 223.937 13 225.559 13C227.253 13 228.74 13.2814 230.021 13.8444C231.3 14.4075 232.282 15.12 232.968 15.9819C233.652 16.8264 234.013 17.6533 234.049 18.4625C234.049 18.6208 233.986 18.7616 233.86 18.8847C233.752 18.9903 233.625 19.0431 233.481 19.0431H228.074C227.821 19.0431 227.622 19.0167 227.479 18.9639C227.334 18.8936 227.172 18.7792 226.992 18.6208C226.614 18.3042 226.135 18.1458 225.559 18.1458C224.694 18.1458 224.262 18.3922 224.262 18.8847C224.262 19.1486 224.468 19.3686 224.883 19.5444C225.316 19.7203 226.108 19.8787 227.263 20.0194C229.065 20.2481 230.507 20.5912 231.589 21.0486C232.688 21.5061 233.481 22.1217 233.968 22.8958C234.472 23.6523 234.725 24.6111 234.725 25.7722C234.725 27.0213 234.337 28.1208 233.563 29.0708C232.787 30.0033 231.715 30.7245 230.345 31.2347C228.993 31.7449 227.46 32 225.749 32ZM250.116 32C247.413 32 245.259 31.3931 243.654 30.1792C242.05 28.9653 241.194 27.1972 241.086 24.875C241.068 24.4 241.059 23.6347 241.059 22.5792C241.059 21.5061 241.068 20.7231 241.086 20.2306C241.14 18.7175 241.545 17.4158 242.302 16.325C243.077 15.2342 244.132 14.4075 245.466 13.8444C246.8 13.2814 248.349 13 250.116 13C251.883 13 253.433 13.2814 254.767 13.8444C256.101 14.4075 257.146 15.2342 257.903 16.325C258.678 17.4158 259.093 18.7175 259.147 20.2306C259.183 21.2158 259.201 21.9986 259.201 22.5792C259.201 23.1597 259.183 23.925 259.147 24.875C259.039 27.1972 258.183 28.9653 256.578 30.1792C254.974 31.3931 252.82 32 250.116 32ZM250.116 26.8542C250.729 26.8542 251.207 26.6783 251.549 26.3264C251.91 25.9745 252.1 25.438 252.117 24.7167C252.154 23.6963 252.171 22.9486 252.171 22.4736C252.171 21.9634 252.154 21.2333 252.117 20.2833C252.1 19.562 251.91 19.0255 251.549 18.6736C251.188 18.3217 250.711 18.1458 250.116 18.1458C249.522 18.1458 249.044 18.3217 248.683 18.6736C248.322 19.0255 248.133 19.562 248.116 20.2833C248.098 20.7583 248.089 21.4884 248.089 22.4736C248.089 23.4588 248.098 24.2064 248.116 24.7167C248.133 25.438 248.314 25.9745 248.656 26.3264C249.017 26.6783 249.504 26.8542 250.116 26.8542ZM267.237 31.7361C267.038 31.7361 266.866 31.6658 266.723 31.525C266.578 31.3842 266.507 31.2172 266.507 31.0236V13.9764C266.507 13.7828 266.578 13.6158 266.723 13.475C266.866 13.3342 267.038 13.2639 267.237 13.2639H275.24C277.835 13.2639 279.863 13.8356 281.323 14.9792C282.783 16.105 283.513 17.6708 283.513 19.6764C283.513 20.82 283.251 21.8314 282.729 22.7111C282.206 23.5731 281.494 24.2856 280.593 24.8486L283.919 30.8653C283.973 30.9708 284 31.0675 284 31.1556C284 31.3139 283.936 31.4547 283.811 31.5778C283.703 31.6833 283.567 31.7361 283.405 31.7361H277.862C277.538 31.7361 277.276 31.6658 277.078 31.525C276.897 31.3667 276.771 31.1995 276.7 31.0236L274.375 25.9833H273.266V31.0236C273.266 31.2172 273.193 31.3842 273.05 31.525C272.905 31.6658 272.733 31.7361 272.536 31.7361H267.237ZM275.24 20.9694C275.636 20.9694 275.943 20.8463 276.159 20.6C276.375 20.3361 276.484 20.0106 276.484 19.6236C276.484 19.2366 276.375 18.9023 276.159 18.6208C275.96 18.3217 275.653 18.1722 275.24 18.1722H273.266V20.9694H275.24Z" fill="black"/>
<path d="M22 44C34.1503 44 44 34.1503 44 22C44 9.84974 34.1503 0 22 0C9.84974 0 0 9.84974 0 22C0 34.1503 9.84974 44 22 44Z" fill="#84C0FC"/>
<path d="M10.2403 18.5973L7.54297 30.9046H14.1798L16.7707 19.2771C16.9127 18.8477 17.536 17.8817 18.7582 17.8817C20.0004 17.8817 20.166 18.8597 20.1069 19.3844L17.6225 30.9046H24.4013L26.6018 19.3844C26.8029 18.8477 27.5104 17.8102 28.7313 17.9533C29.9522 18.0964 30.0681 19.1101 29.9735 19.599L27.702 30.9046L34.3389 30.8331C34.3389 30.8331 36.8521 18.6688 36.8588 18.5615C37.1072 14.5903 34.6938 12.6225 30.7543 12.6225C27.6027 12.6225 25.0402 14.1967 24.1529 14.9838C22.8752 13.7674 22.2364 12.7656 18.7227 12.5867C13.1009 12.3005 11.0566 16.0571 10.2403 18.5973Z" fill="white"/>
</svg>
